<svg xmlns="http://www.w3.org/2000/svg" viewBox="0 0 1280 720" preserveAspectRatio="xMidYMid slice" role="img" aria-label="Energiewende mit E.ON">
  <defs>
    <linearGradient id="g" x1="0" y1="0" x2="1" y2="1">
      <stop offset="0%" stop-color="#7A0A14"/>
      <stop offset="100%" stop-color="#E2001A"/>
    </linearGradient>
    <pattern id="dots" x="0" y="0" width="40" height="40" patternUnits="userSpaceOnUse">
      <circle cx="2" cy="2" r="1.2" fill="#ffffff" fill-opacity="0.08"/>
    </pattern>
  </defs>
  <rect width="1280" height="720" fill="url(#g)"/>
  <rect width="1280" height="720" fill="url(#dots)"/>
  <g transform="translate(880, 240)" opacity="0.92">
    
  <path d="M -120 60 C -120 -40, -40 -120, 60 -120 C 60 -20, -20 60, -120 60 Z" fill="#ffffff" fill-opacity="0.22"/>
  <path d="M -120 60 C -120 -40, -40 -120, 60 -120 C 60 -20, -20 60, -120 60 Z" stroke="#ffffff" stroke-width="4" fill="none"/>
  <path d="M -100 40 Q -30 -20, 40 -100" stroke="#ffffff" stroke-width="4" fill="none"/>
  <path d="M -70 30 L -60 -10" stroke="#ffffff" stroke-width="3" fill="none"/>
  <path d="M -40 10 L -25 -25" stroke="#ffffff" stroke-width="3" fill="none"/>
  <path d="M 0 -20 L 15 -55" stroke="#ffffff" stroke-width="3" fill="none"/>

  </g>
  <g transform="translate(80, 460)">
    <rect x="-8" y="-44" width="6" height="120" fill="#E2001A"/>
    <text x="20" y="0" font-family="Helvetica, Arial, sans-serif" font-size="56" font-weight="700" fill="#ffffff">Energiewende mit E.ON</text>
    <text x="20" y="46" font-family="Helvetica, Arial, sans-serif" font-size="26" font-weight="400" fill="#ffffff" fill-opacity="0.85">Nachhaltig in die Zukunft</text>
  </g>
  <text x="1240" y="690" font-family="Helvetica, Arial, sans-serif" font-size="14" font-weight="600" fill="#ffffff" fill-opacity="0.6" text-anchor="end">DEMO PLACEHOLDER · E.ON Mockup</text>
</svg>
